<svg xmlns="http://www.w3.org/2000/svg" viewBox="0 0 256 256">
  <g fill="#8b1a1a">

    <!-- Estrela -->
    <path d="
      M128 18
      C122 42 112 66 96 96
      C66 112 42 122 18 128
      C42 134 66 144 96 160
      C112 190 122 214 128 238
      C134 214 144 190 160 160
      C190 144 214 134 238 128
      C214 122 190 112 160 96
      C144 66 134 42 128 18
      Z

      M128 52
      C124 66 117 82 107 107
      C82 117 66 124 52 128
      C66 132 82 139 107 149
      C117 174 124 190 128 204
      C132 190 139 174 149 149
      C174 139 190 132 204 128
      C190 124 174 117 149 107
      C139 82 132 66 128 52
      Z
    " fill-rule="evenodd"/>

    <!-- Pupila -->
    <path d="
      M128 104
      a24 24 0 1 0 24 24
      a10 10 0 1 1-10-10
      a4 4 0 1 0-8 0
      a16 16 0 1 1-6-12
      Z"/>
  </g>
</svg>